<?xml version="1.0" encoding="utf-8"?>
<!-- Generator: Adobe Illustrator 16.0.0, SVG Export Plug-In . SVG Version: 6.00 Build 0)  -->
<!DOCTYPE svg PUBLIC "-//W3C//DTD SVG 1.1//EN" "http://www.w3.org/Graphics/SVG/1.1/DTD/svg11.dtd">
<svg version="1.1" id="Layer_1" xmlns="http://www.w3.org/2000/svg" xmlns:xlink="http://www.w3.org/1999/xlink" x="0px" y="0px"
	 width="154.838px" height="30px" viewBox="0 0 154.838 30" enable-background="new 0 0 154.838 30" xml:space="preserve">
<g>
	<path fill="#FFFFFF" d="M33.981,0.607h14.444c5.457,0,8.436,3.182,8.436,7.121c0,3.335-2.172,5.607-4.748,6.31
		c3.029,0.708,5.352,3.537,5.352,6.817c0,4.297-3.08,7.528-8.634,7.528H33.981V0.607z M47.618,5.402h-8.132v6.417h8.132
		c2.325,0,3.638-1.366,3.638-3.184C51.256,6.717,49.89,5.402,47.618,5.402z M47.872,16.616h-8.385v6.969h8.385
		c2.423,0,3.938-1.312,3.938-3.437C51.809,18.283,50.394,16.616,47.872,16.616z"/>
	<path fill="#FFFFFF" d="M63.562,0.607h5.503v27.776h-5.503V0.607z"/>
	<path fill="#FFFFFF" d="M82.591,5.402h-8.184V0.607h21.919v4.794h-8.23v22.982h-5.505V5.402z"/>
	<path fill="#FFFFFF" d="M101.094,0.607h20.252v4.794h-14.749v6.417h14.44v4.797h-14.44v6.969h14.749v4.799h-20.252V0.607z"/>
	<path fill="#FFFFFF" d="M150.951,24.694l2.275,2.578L149.891,30l-2.421-2.728c-2.072,1.111-4.545,1.716-7.276,1.716
		c-8.787,0-14.696-6.211-14.696-14.495C125.497,6.213,131.406,0,140.193,0c8.686,0,14.645,6.213,14.645,14.494
		C154.838,18.536,153.429,22.12,150.951,24.694z M144.183,23.329l-3.232-3.633l3.333-2.779l3.229,3.688
		c1.215-1.67,1.87-3.739,1.87-6.111c0-5.505-3.584-9.644-9.042-9.644c-5.555,0-9.089,4.139-9.089,9.644
		c0,5.459,3.534,9.646,9.089,9.646C141.759,24.14,143.021,23.838,144.183,23.329z"/>
	<polygon fill="#FFFFFF" points="11.508,0.607 0,28.384 5.861,28.384 17.367,0.607 	"/>
	<polygon fill="#FFFFFF" points="28.874,28.384 20.299,7.676 17.368,14.75 23.015,28.384 	"/>
</g>
</svg>
